<mxfile host="app.diagrams.net" modified="2024-01-09T08:01:42.807Z" agent="Mozilla/5.0 (Windows NT 10.0; Win64; x64) AppleWebKit/537.36 (KHTML, like Gecko) Chrome/120.0.0.0 Safari/537.36" etag="3ABKSCYxza9Q5kJWHeni" version="22.1.17" type="github">
  <diagram name="第 1 页" id="Fsyrpo6MKxdmgfVPUVB8">
    <mxGraphModel dx="2738" dy="1267" grid="1" gridSize="10" guides="1" tooltips="1" connect="1" arrows="1" fold="1" page="0" pageScale="1" pageWidth="827" pageHeight="1169" math="0" shadow="0">
      <root>
        <mxCell id="0" />
        <mxCell id="1" parent="0" />
        <mxCell id="1MuV_IucEmC4G-RkcaJf-1" value="&lt;font face=&quot;楷体&quot; style=&quot;font-size: 17px;&quot;&gt;Spring Boot 启动流程图&lt;/font&gt;" style="rounded=0;whiteSpace=wrap;html=1;fillColor=#f8cecc;strokeColor=#b85450;sketch=1;curveFitting=1;jiggle=2;" parent="1" vertex="1">
          <mxGeometry x="-83" y="-127" width="341" height="51" as="geometry" />
        </mxCell>
        <mxCell id="GrhtgEDJioB49mtgLCL9-1" style="edgeStyle=orthogonalEdgeStyle;rounded=0;orthogonalLoop=1;jettySize=auto;html=1;fontFamily=Helvetica;fontSize=12;fontColor=default;" parent="1" source="NG0EGLZM-to8MOZyw5YY-2" target="GrhtgEDJioB49mtgLCL9-2" edge="1">
          <mxGeometry relative="1" as="geometry">
            <mxPoint x="-403" y="222" as="targetPoint" />
          </mxGeometry>
        </mxCell>
        <mxCell id="NG0EGLZM-to8MOZyw5YY-2" value="&lt;font style=&quot;font-size: 14px;&quot;&gt;MyApplication#main(&lt;/font&gt;args" style="rounded=0;whiteSpace=wrap;html=1;sketch=1;jiggle=2;curveFitting=1;strokeColor=#82b366;align=center;verticalAlign=middle;fontFamily=Helvetica;fontSize=12;fillColor=#d5e8d4;" parent="1" vertex="1">
          <mxGeometry x="-677" y="150" width="234" height="45" as="geometry" />
        </mxCell>
        <mxCell id="-Nt0YculoANfRuS3EZCN-2" style="edgeStyle=orthogonalEdgeStyle;rounded=0;sketch=1;hachureGap=4;jiggle=2;curveFitting=1;orthogonalLoop=1;jettySize=auto;html=1;fontFamily=Architects Daughter;fontSource=https%3A%2F%2Ffonts.googleapis.com%2Fcss%3Ffamily%3DArchitects%2BDaughter;fontSize=16;" edge="1" parent="1" source="GrhtgEDJioB49mtgLCL9-2" target="-Nt0YculoANfRuS3EZCN-1">
          <mxGeometry relative="1" as="geometry" />
        </mxCell>
        <mxCell id="GrhtgEDJioB49mtgLCL9-2" value="&lt;font style=&quot;font-size: 14px;&quot;&gt;SpringApplication.run(MyApplication.class, args)&lt;/font&gt;" style="rounded=0;whiteSpace=wrap;html=1;sketch=1;jiggle=2;curveFitting=1;strokeColor=#82b366;align=center;verticalAlign=middle;fontFamily=Helvetica;fontSize=12;fillColor=#d5e8d4;" parent="1" vertex="1">
          <mxGeometry x="-720" y="245" width="320" height="45" as="geometry" />
        </mxCell>
        <mxCell id="GrhtgEDJioB49mtgLCL9-3" value="判断当前程序的类型：&lt;br&gt;NONE，SERVLET，REACTIVE" style="shape=note;whiteSpace=wrap;html=1;backgroundOutline=1;darkOpacity=0.05;rounded=0;sketch=1;jiggle=2;curveFitting=1;strokeColor=#d79b00;align=center;verticalAlign=middle;fontFamily=Helvetica;fontSize=12;fillColor=#ffe6cc;" parent="1" vertex="1">
          <mxGeometry x="-20" y="-15" width="260" height="71" as="geometry" />
        </mxCell>
        <mxCell id="-Nt0YculoANfRuS3EZCN-4" style="edgeStyle=orthogonalEdgeStyle;rounded=0;sketch=1;hachureGap=4;jiggle=2;curveFitting=1;orthogonalLoop=1;jettySize=auto;html=1;fontFamily=Architects Daughter;fontSource=https%3A%2F%2Ffonts.googleapis.com%2Fcss%3Ffamily%3DArchitects%2BDaughter;fontSize=16;" edge="1" parent="1" source="-Nt0YculoANfRuS3EZCN-1" target="-Nt0YculoANfRuS3EZCN-3">
          <mxGeometry relative="1" as="geometry" />
        </mxCell>
        <mxCell id="-Nt0YculoANfRuS3EZCN-1" value="&lt;font style=&quot;font-size: 14px;&quot;&gt;#.run(new Class&amp;lt;?&amp;gt;[] { primarySource }, args)&lt;/font&gt;" style="rounded=0;whiteSpace=wrap;html=1;sketch=1;jiggle=2;curveFitting=1;strokeColor=#82b366;align=center;verticalAlign=middle;fontFamily=Helvetica;fontSize=12;fillColor=#d5e8d4;" vertex="1" parent="1">
          <mxGeometry x="-720" y="331.88" width="320" height="45" as="geometry" />
        </mxCell>
        <mxCell id="-Nt0YculoANfRuS3EZCN-6" style="edgeStyle=orthogonalEdgeStyle;rounded=0;sketch=1;hachureGap=4;jiggle=2;curveFitting=1;orthogonalLoop=1;jettySize=auto;html=1;fontFamily=Architects Daughter;fontSource=https%3A%2F%2Ffonts.googleapis.com%2Fcss%3Ffamily%3DArchitects%2BDaughter;fontSize=16;" edge="1" parent="1" source="-Nt0YculoANfRuS3EZCN-3" target="-Nt0YculoANfRuS3EZCN-5">
          <mxGeometry relative="1" as="geometry" />
        </mxCell>
        <mxCell id="-Nt0YculoANfRuS3EZCN-16" value="" style="edgeStyle=orthogonalEdgeStyle;rounded=0;sketch=1;hachureGap=4;jiggle=2;curveFitting=1;orthogonalLoop=1;jettySize=auto;html=1;fontFamily=Helvetica;fontSource=https%3A%2F%2Ffonts.googleapis.com%2Fcss%3Ffamily%3DArchitects%2BDaughter;fontSize=12;fontColor=default;" edge="1" parent="1" source="-Nt0YculoANfRuS3EZCN-3" target="-Nt0YculoANfRuS3EZCN-15">
          <mxGeometry relative="1" as="geometry" />
        </mxCell>
        <mxCell id="-Nt0YculoANfRuS3EZCN-3" value="&lt;font style=&quot;font-size: 14px;&quot;&gt;new SpringApplication(primarySources).run(args)&lt;br&gt;执行SpringApplication构造方法&lt;br&gt;&lt;/font&gt;" style="rounded=0;whiteSpace=wrap;html=1;sketch=1;jiggle=2;curveFitting=1;strokeColor=#82b366;align=center;verticalAlign=middle;fontFamily=Helvetica;fontSize=12;fillColor=#d5e8d4;" vertex="1" parent="1">
          <mxGeometry x="-720" y="400" width="320" height="80" as="geometry" />
        </mxCell>
        <mxCell id="-Nt0YculoANfRuS3EZCN-5" value="&lt;span style=&quot;font-size: 14px;&quot;&gt;Spring&lt;/span&gt;" style="rounded=0;whiteSpace=wrap;html=1;sketch=1;jiggle=2;curveFitting=1;strokeColor=#82b366;align=center;verticalAlign=middle;fontFamily=Helvetica;fontSize=12;fillColor=#d5e8d4;" vertex="1" parent="1">
          <mxGeometry x="-720" y="570" width="320" height="45" as="geometry" />
        </mxCell>
        <mxCell id="-Nt0YculoANfRuS3EZCN-10" style="edgeStyle=orthogonalEdgeStyle;rounded=0;sketch=1;hachureGap=4;jiggle=2;curveFitting=1;orthogonalLoop=1;jettySize=auto;html=1;entryX=0;entryY=0.75;entryDx=0;entryDy=0;fontFamily=Helvetica;fontSource=https%3A%2F%2Ffonts.googleapis.com%2Fcss%3Ffamily%3DArchitects%2BDaughter;fontSize=12;fontColor=default;" edge="1" parent="1" source="-Nt0YculoANfRuS3EZCN-8" target="GrhtgEDJioB49mtgLCL9-2">
          <mxGeometry relative="1" as="geometry" />
        </mxCell>
        <mxCell id="-Nt0YculoANfRuS3EZCN-11" style="edgeStyle=orthogonalEdgeStyle;rounded=0;sketch=1;hachureGap=4;jiggle=2;curveFitting=1;orthogonalLoop=1;jettySize=auto;html=1;fontFamily=Helvetica;fontSource=https%3A%2F%2Ffonts.googleapis.com%2Fcss%3Ffamily%3DArchitects%2BDaughter;fontSize=12;fontColor=default;" edge="1" parent="1" source="-Nt0YculoANfRuS3EZCN-8" target="-Nt0YculoANfRuS3EZCN-1">
          <mxGeometry relative="1" as="geometry" />
        </mxCell>
        <mxCell id="-Nt0YculoANfRuS3EZCN-12" style="edgeStyle=orthogonalEdgeStyle;rounded=0;sketch=1;hachureGap=4;jiggle=2;curveFitting=1;orthogonalLoop=1;jettySize=auto;html=1;entryX=0;entryY=0.5;entryDx=0;entryDy=0;fontFamily=Helvetica;fontSource=https%3A%2F%2Ffonts.googleapis.com%2Fcss%3Ffamily%3DArchitects%2BDaughter;fontSize=12;fontColor=default;" edge="1" parent="1" source="-Nt0YculoANfRuS3EZCN-8" target="-Nt0YculoANfRuS3EZCN-3">
          <mxGeometry relative="1" as="geometry" />
        </mxCell>
        <mxCell id="-Nt0YculoANfRuS3EZCN-8" value="给定主类，命令行参数，创建SpringApplication实例，并执行run方法" style="rounded=0;whiteSpace=wrap;html=1;sketch=1;jiggle=2;curveFitting=1;strokeColor=#d79b00;align=center;verticalAlign=middle;fontFamily=Helvetica;fontSize=12;fillColor=#ffe6cc;" vertex="1" parent="1">
          <mxGeometry x="-1010" y="331.88" width="210" height="61.25" as="geometry" />
        </mxCell>
        <mxCell id="-Nt0YculoANfRuS3EZCN-15" value="" style="whiteSpace=wrap;html=1;fillColor=#d5e8d4;strokeColor=#82b366;rounded=0;sketch=1;jiggle=2;curveFitting=1;" vertex="1" parent="1">
          <mxGeometry x="-220" y="410" width="200" height="60" as="geometry" />
        </mxCell>
      </root>
    </mxGraphModel>
  </diagram>
</mxfile>
